<mxfile host="Electron" agent="Mozilla/5.0 (Macintosh; Intel Mac OS X 10_15_7) AppleWebKit/537.36 (KHTML, like Gecko) draw.io/24.7.17 Chrome/128.0.6613.36 Electron/32.0.1 Safari/537.36" version="24.7.17">
  <diagram id="23iRSUPoRavnBvh4doch" name="Page-1">
    <mxGraphModel dx="3019" dy="1854" grid="1" gridSize="10" guides="1" tooltips="1" connect="1" arrows="1" fold="1" page="1" pageScale="1" pageWidth="827" pageHeight="1169" math="0" shadow="0">
      <root>
        <mxCell id="0" />
        <mxCell id="1" parent="0" />
        <mxCell id="AOC4Pka1vFd79-6JaPsT-1" value="" style="rounded=1;whiteSpace=wrap;html=1;" parent="1" vertex="1">
          <mxGeometry x="-180" y="-10" width="2380" height="1240" as="geometry" />
        </mxCell>
        <mxCell id="toGkSWeK2i7E6_Ux2etf-1" style="edgeStyle=orthogonalEdgeStyle;rounded=0;orthogonalLoop=1;jettySize=auto;html=1;exitX=0.5;exitY=1;exitDx=0;exitDy=0;entryX=0.5;entryY=0;entryDx=0;entryDy=0;" parent="1" source="toGkSWeK2i7E6_Ux2etf-2" target="toGkSWeK2i7E6_Ux2etf-9" edge="1">
          <mxGeometry relative="1" as="geometry" />
        </mxCell>
        <mxCell id="toGkSWeK2i7E6_Ux2etf-2" value="Component&#39;s &lt;b&gt;&lt;span style=&quot;background-color: rgb(126, 166, 224);&quot;&gt;system&lt;/span&gt; &lt;/b&gt;Event" style="ellipse;whiteSpace=wrap;html=1;" parent="1" vertex="1">
          <mxGeometry x="155" y="170" width="110" height="80" as="geometry" />
        </mxCell>
        <mxCell id="toGkSWeK2i7E6_Ux2etf-3" style="edgeStyle=orthogonalEdgeStyle;rounded=0;orthogonalLoop=1;jettySize=auto;html=1;exitX=0.5;exitY=1;exitDx=0;exitDy=0;entryX=0.5;entryY=0;entryDx=0;entryDy=0;" parent="1" source="toGkSWeK2i7E6_Ux2etf-9" target="toGkSWeK2i7E6_Ux2etf-11" edge="1">
          <mxGeometry relative="1" as="geometry" />
        </mxCell>
        <mxCell id="toGkSWeK2i7E6_Ux2etf-4" value="same" style="edgeLabel;html=1;align=center;verticalAlign=middle;resizable=0;points=[];" parent="toGkSWeK2i7E6_Ux2etf-3" vertex="1" connectable="0">
          <mxGeometry x="-0.1333" y="2" relative="1" as="geometry">
            <mxPoint as="offset" />
          </mxGeometry>
        </mxCell>
        <mxCell id="toGkSWeK2i7E6_Ux2etf-5" style="edgeStyle=orthogonalEdgeStyle;rounded=0;orthogonalLoop=1;jettySize=auto;html=1;exitX=0;exitY=0.5;exitDx=0;exitDy=0;entryX=0.5;entryY=0;entryDx=0;entryDy=0;" parent="1" source="toGkSWeK2i7E6_Ux2etf-9" target="toGkSWeK2i7E6_Ux2etf-10" edge="1">
          <mxGeometry relative="1" as="geometry" />
        </mxCell>
        <mxCell id="toGkSWeK2i7E6_Ux2etf-6" value="&lt;div&gt;lower&lt;/div&gt;" style="edgeLabel;html=1;align=center;verticalAlign=middle;resizable=0;points=[];" parent="toGkSWeK2i7E6_Ux2etf-5" vertex="1" connectable="0">
          <mxGeometry x="0.6872" y="2" relative="1" as="geometry">
            <mxPoint y="1" as="offset" />
          </mxGeometry>
        </mxCell>
        <mxCell id="toGkSWeK2i7E6_Ux2etf-7" style="edgeStyle=orthogonalEdgeStyle;rounded=0;orthogonalLoop=1;jettySize=auto;html=1;exitX=1;exitY=0.5;exitDx=0;exitDy=0;entryX=0.5;entryY=0;entryDx=0;entryDy=0;" parent="1" source="toGkSWeK2i7E6_Ux2etf-9" target="toGkSWeK2i7E6_Ux2etf-12" edge="1">
          <mxGeometry relative="1" as="geometry" />
        </mxCell>
        <mxCell id="toGkSWeK2i7E6_Ux2etf-8" value="higher" style="edgeLabel;html=1;align=center;verticalAlign=middle;resizable=0;points=[];" parent="toGkSWeK2i7E6_Ux2etf-7" vertex="1" connectable="0">
          <mxGeometry x="0.6872" relative="1" as="geometry">
            <mxPoint y="1" as="offset" />
          </mxGeometry>
        </mxCell>
        <mxCell id="toGkSWeK2i7E6_Ux2etf-9" value="Severity is &#x9;&lt;br&gt;lower/same/higher &lt;br&gt;&lt;span style=&quot;&quot;&gt;&lt;span style=&quot;white-space: pre;&quot;&gt;&amp;nbsp;&amp;nbsp;&amp;nbsp;&amp;nbsp;&lt;/span&gt;&lt;/span&gt;than existing &lt;br&gt;&lt;b&gt;&lt;span style=&quot;background-color: rgb(250 , 150 , 70)&quot;&gt;user &lt;/span&gt;&lt;/b&gt;incident?" style="rhombus;whiteSpace=wrap;html=1;" parent="1" vertex="1">
          <mxGeometry x="142.5" y="280" width="135" height="140" as="geometry" />
        </mxCell>
        <mxCell id="toGkSWeK2i7E6_Ux2etf-10" value="Do nothing" style="rounded=1;whiteSpace=wrap;html=1;" parent="1" vertex="1">
          <mxGeometry y="470" width="120" height="90" as="geometry" />
        </mxCell>
        <mxCell id="toGkSWeK2i7E6_Ux2etf-11" value="Do nothing" style="rounded=1;whiteSpace=wrap;html=1;" parent="1" vertex="1">
          <mxGeometry x="150" y="470" width="120" height="90" as="geometry" />
        </mxCell>
        <mxCell id="toGkSWeK2i7E6_Ux2etf-12" value="&lt;span style=&quot;background-color: rgb(255, 213, 0);&quot;&gt;Increase existing user incident severity&lt;/span&gt;" style="rounded=1;whiteSpace=wrap;html=1;" parent="1" vertex="1">
          <mxGeometry x="300" y="470" width="120" height="90" as="geometry" />
        </mxCell>
        <mxCell id="toGkSWeK2i7E6_Ux2etf-13" style="edgeStyle=orthogonalEdgeStyle;rounded=0;orthogonalLoop=1;jettySize=auto;html=1;exitX=0.5;exitY=1;exitDx=0;exitDy=0;entryX=0.5;entryY=0;entryDx=0;entryDy=0;" parent="1" source="toGkSWeK2i7E6_Ux2etf-14" target="toGkSWeK2i7E6_Ux2etf-21" edge="1">
          <mxGeometry relative="1" as="geometry" />
        </mxCell>
        <mxCell id="toGkSWeK2i7E6_Ux2etf-14" value="Component&#39;s &lt;b&gt;&lt;span style=&quot;background-color: rgb(126, 166, 224);&quot;&gt;system&lt;/span&gt; &lt;/b&gt;Event" style="ellipse;whiteSpace=wrap;html=1;" parent="1" vertex="1">
          <mxGeometry x="655" y="170" width="110" height="80" as="geometry" />
        </mxCell>
        <mxCell id="toGkSWeK2i7E6_Ux2etf-15" style="edgeStyle=orthogonalEdgeStyle;rounded=0;orthogonalLoop=1;jettySize=auto;html=1;exitX=0.5;exitY=1;exitDx=0;exitDy=0;entryX=0.5;entryY=0;entryDx=0;entryDy=0;" parent="1" source="toGkSWeK2i7E6_Ux2etf-21" target="toGkSWeK2i7E6_Ux2etf-23" edge="1">
          <mxGeometry relative="1" as="geometry" />
        </mxCell>
        <mxCell id="toGkSWeK2i7E6_Ux2etf-16" value="same" style="edgeLabel;html=1;align=center;verticalAlign=middle;resizable=0;points=[];" parent="toGkSWeK2i7E6_Ux2etf-15" vertex="1" connectable="0">
          <mxGeometry x="-0.0667" y="-1" relative="1" as="geometry">
            <mxPoint as="offset" />
          </mxGeometry>
        </mxCell>
        <mxCell id="toGkSWeK2i7E6_Ux2etf-17" style="edgeStyle=orthogonalEdgeStyle;rounded=0;orthogonalLoop=1;jettySize=auto;html=1;exitX=0;exitY=0.5;exitDx=0;exitDy=0;entryX=0.5;entryY=0;entryDx=0;entryDy=0;" parent="1" source="toGkSWeK2i7E6_Ux2etf-21" target="toGkSWeK2i7E6_Ux2etf-22" edge="1">
          <mxGeometry relative="1" as="geometry" />
        </mxCell>
        <mxCell id="toGkSWeK2i7E6_Ux2etf-18" value="lower" style="edgeLabel;html=1;align=center;verticalAlign=middle;resizable=0;points=[];" parent="toGkSWeK2i7E6_Ux2etf-17" vertex="1" connectable="0">
          <mxGeometry x="0.7037" y="-1" relative="1" as="geometry">
            <mxPoint y="1" as="offset" />
          </mxGeometry>
        </mxCell>
        <mxCell id="toGkSWeK2i7E6_Ux2etf-19" style="edgeStyle=orthogonalEdgeStyle;rounded=0;orthogonalLoop=1;jettySize=auto;html=1;exitX=1;exitY=0.5;exitDx=0;exitDy=0;entryX=0.5;entryY=0;entryDx=0;entryDy=0;" parent="1" source="toGkSWeK2i7E6_Ux2etf-21" target="toGkSWeK2i7E6_Ux2etf-24" edge="1">
          <mxGeometry relative="1" as="geometry" />
        </mxCell>
        <mxCell id="toGkSWeK2i7E6_Ux2etf-20" value="higher" style="edgeLabel;html=1;align=center;verticalAlign=middle;resizable=0;points=[];" parent="toGkSWeK2i7E6_Ux2etf-19" vertex="1" connectable="0">
          <mxGeometry x="0.7202" relative="1" as="geometry">
            <mxPoint y="-1" as="offset" />
          </mxGeometry>
        </mxCell>
        <mxCell id="toGkSWeK2i7E6_Ux2etf-21" value="Severity is &#x9;&lt;br&gt;lower/same/higher &lt;br&gt;&lt;span style=&quot;&quot;&gt;&lt;span style=&quot;white-space: pre;&quot;&gt;&amp;nbsp;&amp;nbsp;&amp;nbsp;&amp;nbsp;&lt;/span&gt;&lt;/span&gt;than existing &lt;br&gt;&lt;b&gt;&lt;span style=&quot;background-color: rgb(160 , 200 , 240)&quot;&gt;system &lt;/span&gt;&lt;/b&gt;incident?" style="rhombus;whiteSpace=wrap;html=1;" parent="1" vertex="1">
          <mxGeometry x="642.5" y="280" width="135" height="140" as="geometry" />
        </mxCell>
        <mxCell id="toGkSWeK2i7E6_Ux2etf-22" value="Do nothing" style="rounded=1;whiteSpace=wrap;html=1;" parent="1" vertex="1">
          <mxGeometry x="500" y="470" width="120" height="90" as="geometry" />
        </mxCell>
        <mxCell id="toGkSWeK2i7E6_Ux2etf-23" value="Do nothing" style="rounded=1;whiteSpace=wrap;html=1;" parent="1" vertex="1">
          <mxGeometry x="650" y="470" width="120" height="90" as="geometry" />
        </mxCell>
        <mxCell id="toGkSWeK2i7E6_Ux2etf-24" value="&lt;span style=&quot;background-color: rgb(255, 234, 0);&quot;&gt;Increase existing system incident severity&lt;/span&gt;" style="rounded=1;whiteSpace=wrap;html=1;" parent="1" vertex="1">
          <mxGeometry x="800" y="470" width="120" height="90" as="geometry" />
        </mxCell>
        <mxCell id="toGkSWeK2i7E6_Ux2etf-25" style="edgeStyle=orthogonalEdgeStyle;rounded=0;orthogonalLoop=1;jettySize=auto;html=1;exitX=0.5;exitY=1;exitDx=0;exitDy=0;entryX=0.5;entryY=0;entryDx=0;entryDy=0;" parent="1" source="toGkSWeK2i7E6_Ux2etf-26" target="toGkSWeK2i7E6_Ux2etf-33" edge="1">
          <mxGeometry relative="1" as="geometry" />
        </mxCell>
        <mxCell id="toGkSWeK2i7E6_Ux2etf-26" value="Component&#39;s&lt;br&gt; &lt;b&gt;&lt;span style=&quot;background-color: rgb(250, 150, 70);&quot;&gt;User&lt;/span&gt; &lt;/b&gt;Event" style="ellipse;whiteSpace=wrap;html=1;" parent="1" vertex="1">
          <mxGeometry x="155" y="630" width="110" height="80" as="geometry" />
        </mxCell>
        <mxCell id="toGkSWeK2i7E6_Ux2etf-27" style="edgeStyle=orthogonalEdgeStyle;rounded=0;orthogonalLoop=1;jettySize=auto;html=1;exitX=0.5;exitY=1;exitDx=0;exitDy=0;entryX=0.5;entryY=0;entryDx=0;entryDy=0;" parent="1" source="toGkSWeK2i7E6_Ux2etf-33" target="toGkSWeK2i7E6_Ux2etf-35" edge="1">
          <mxGeometry relative="1" as="geometry" />
        </mxCell>
        <mxCell id="toGkSWeK2i7E6_Ux2etf-28" value="same" style="edgeLabel;html=1;align=center;verticalAlign=middle;resizable=0;points=[];" parent="toGkSWeK2i7E6_Ux2etf-27" vertex="1" connectable="0">
          <mxGeometry y="2" relative="1" as="geometry">
            <mxPoint as="offset" />
          </mxGeometry>
        </mxCell>
        <mxCell id="toGkSWeK2i7E6_Ux2etf-29" style="edgeStyle=orthogonalEdgeStyle;rounded=0;orthogonalLoop=1;jettySize=auto;html=1;exitX=0;exitY=0.5;exitDx=0;exitDy=0;entryX=0.5;entryY=0;entryDx=0;entryDy=0;" parent="1" source="toGkSWeK2i7E6_Ux2etf-33" target="toGkSWeK2i7E6_Ux2etf-34" edge="1">
          <mxGeometry relative="1" as="geometry" />
        </mxCell>
        <mxCell id="toGkSWeK2i7E6_Ux2etf-30" value="lower" style="edgeLabel;html=1;align=center;verticalAlign=middle;resizable=0;points=[];" parent="toGkSWeK2i7E6_Ux2etf-29" vertex="1" connectable="0">
          <mxGeometry x="0.7202" y="2" relative="1" as="geometry">
            <mxPoint y="-1" as="offset" />
          </mxGeometry>
        </mxCell>
        <mxCell id="toGkSWeK2i7E6_Ux2etf-31" style="edgeStyle=orthogonalEdgeStyle;rounded=0;orthogonalLoop=1;jettySize=auto;html=1;exitX=1;exitY=0.5;exitDx=0;exitDy=0;entryX=0.5;entryY=0;entryDx=0;entryDy=0;" parent="1" source="toGkSWeK2i7E6_Ux2etf-33" target="toGkSWeK2i7E6_Ux2etf-36" edge="1">
          <mxGeometry relative="1" as="geometry" />
        </mxCell>
        <mxCell id="toGkSWeK2i7E6_Ux2etf-32" value="higher" style="edgeLabel;html=1;align=center;verticalAlign=middle;resizable=0;points=[];" parent="toGkSWeK2i7E6_Ux2etf-31" vertex="1" connectable="0">
          <mxGeometry x="0.7037" y="2" relative="1" as="geometry">
            <mxPoint y="3" as="offset" />
          </mxGeometry>
        </mxCell>
        <mxCell id="toGkSWeK2i7E6_Ux2etf-33" value="Severity is &#x9;&lt;br&gt;lower/same/higher &lt;br&gt;&lt;span style=&quot;&quot;&gt;&lt;span style=&quot;white-space: pre;&quot;&gt;&amp;nbsp;&amp;nbsp;&amp;nbsp;&amp;nbsp;&lt;/span&gt;&lt;/span&gt;than existing &lt;br&gt;&lt;b&gt;&lt;span style=&quot;background-color: rgb(250 , 150 , 70)&quot;&gt;user &lt;/span&gt;&lt;/b&gt;incident?" style="rhombus;whiteSpace=wrap;html=1;" parent="1" vertex="1">
          <mxGeometry x="142.5" y="740" width="135" height="140" as="geometry" />
        </mxCell>
        <mxCell id="toGkSWeK2i7E6_Ux2etf-34" value="Create new user incident" style="rounded=1;whiteSpace=wrap;html=1;" parent="1" vertex="1">
          <mxGeometry y="930" width="120" height="90" as="geometry" />
        </mxCell>
        <mxCell id="toGkSWeK2i7E6_Ux2etf-35" value="&lt;font style=&quot;font-size: 10px&quot;&gt;Possible move component to new user incident if there&#39;s still at least 1 other component remaining in existing incident&lt;/font&gt;" style="rounded=1;whiteSpace=wrap;html=1;" parent="1" vertex="1">
          <mxGeometry x="150" y="930" width="120" height="90" as="geometry" />
        </mxCell>
        <mxCell id="toGkSWeK2i7E6_Ux2etf-36" value="Create new user incident" style="rounded=1;whiteSpace=wrap;html=1;" parent="1" vertex="1">
          <mxGeometry x="300" y="930" width="120" height="90" as="geometry" />
        </mxCell>
        <mxCell id="toGkSWeK2i7E6_Ux2etf-37" style="edgeStyle=orthogonalEdgeStyle;rounded=0;orthogonalLoop=1;jettySize=auto;html=1;exitX=0.5;exitY=1;exitDx=0;exitDy=0;entryX=0.5;entryY=0;entryDx=0;entryDy=0;" parent="1" source="toGkSWeK2i7E6_Ux2etf-38" target="toGkSWeK2i7E6_Ux2etf-45" edge="1">
          <mxGeometry relative="1" as="geometry" />
        </mxCell>
        <mxCell id="toGkSWeK2i7E6_Ux2etf-38" value="Component&#39;s&lt;br&gt; &lt;b&gt;&lt;span style=&quot;background-color: rgb(250, 150, 70);&quot;&gt;User &lt;/span&gt;&lt;/b&gt;Event" style="ellipse;whiteSpace=wrap;html=1;" parent="1" vertex="1">
          <mxGeometry x="655" y="630" width="110" height="80" as="geometry" />
        </mxCell>
        <mxCell id="toGkSWeK2i7E6_Ux2etf-39" style="edgeStyle=orthogonalEdgeStyle;rounded=0;orthogonalLoop=1;jettySize=auto;html=1;exitX=0.5;exitY=1;exitDx=0;exitDy=0;entryX=0.5;entryY=0;entryDx=0;entryDy=0;" parent="1" source="toGkSWeK2i7E6_Ux2etf-45" target="toGkSWeK2i7E6_Ux2etf-47" edge="1">
          <mxGeometry relative="1" as="geometry" />
        </mxCell>
        <mxCell id="toGkSWeK2i7E6_Ux2etf-40" value="same" style="edgeLabel;html=1;align=center;verticalAlign=middle;resizable=0;points=[];" parent="toGkSWeK2i7E6_Ux2etf-39" vertex="1" connectable="0">
          <mxGeometry x="-0.1333" relative="1" as="geometry">
            <mxPoint y="1" as="offset" />
          </mxGeometry>
        </mxCell>
        <mxCell id="toGkSWeK2i7E6_Ux2etf-41" style="edgeStyle=orthogonalEdgeStyle;rounded=0;orthogonalLoop=1;jettySize=auto;html=1;exitX=0;exitY=0.5;exitDx=0;exitDy=0;entryX=0.5;entryY=0;entryDx=0;entryDy=0;" parent="1" source="toGkSWeK2i7E6_Ux2etf-45" target="toGkSWeK2i7E6_Ux2etf-46" edge="1">
          <mxGeometry relative="1" as="geometry" />
        </mxCell>
        <mxCell id="toGkSWeK2i7E6_Ux2etf-42" value="lower" style="edgeLabel;html=1;align=center;verticalAlign=middle;resizable=0;points=[];" parent="toGkSWeK2i7E6_Ux2etf-41" vertex="1" connectable="0">
          <mxGeometry x="0.7202" y="2" relative="1" as="geometry">
            <mxPoint y="-1" as="offset" />
          </mxGeometry>
        </mxCell>
        <mxCell id="toGkSWeK2i7E6_Ux2etf-43" style="edgeStyle=orthogonalEdgeStyle;rounded=0;orthogonalLoop=1;jettySize=auto;html=1;exitX=1;exitY=0.5;exitDx=0;exitDy=0;entryX=0.5;entryY=0;entryDx=0;entryDy=0;" parent="1" source="toGkSWeK2i7E6_Ux2etf-45" target="toGkSWeK2i7E6_Ux2etf-48" edge="1">
          <mxGeometry relative="1" as="geometry" />
        </mxCell>
        <mxCell id="toGkSWeK2i7E6_Ux2etf-44" value="higher" style="edgeLabel;html=1;align=center;verticalAlign=middle;resizable=0;points=[];" parent="toGkSWeK2i7E6_Ux2etf-43" vertex="1" connectable="0">
          <mxGeometry x="0.7037" y="2" relative="1" as="geometry">
            <mxPoint y="2" as="offset" />
          </mxGeometry>
        </mxCell>
        <mxCell id="toGkSWeK2i7E6_Ux2etf-45" value="Severity is &#x9;&lt;br&gt;lower/same/higher &lt;br&gt;&lt;span style=&quot;&quot;&gt;&lt;span style=&quot;white-space: pre;&quot;&gt;&amp;nbsp;&amp;nbsp;&amp;nbsp;&amp;nbsp;&lt;/span&gt;&lt;/span&gt;than existing &lt;br&gt;&lt;b&gt;&lt;span style=&quot;background-color: rgb(160 , 200 , 240)&quot;&gt;system &lt;/span&gt;&lt;/b&gt;incident?" style="rhombus;whiteSpace=wrap;html=1;" parent="1" vertex="1">
          <mxGeometry x="642.5" y="740" width="135" height="140" as="geometry" />
        </mxCell>
        <mxCell id="toGkSWeK2i7E6_Ux2etf-46" value="Create new user incident" style="rounded=1;whiteSpace=wrap;html=1;" parent="1" vertex="1">
          <mxGeometry x="500" y="930" width="120" height="90" as="geometry" />
        </mxCell>
        <mxCell id="toGkSWeK2i7E6_Ux2etf-47" value="&lt;font style=&quot;font-size: 10px&quot;&gt;Possible move component to new user incident from system incident&lt;/font&gt;" style="rounded=1;whiteSpace=wrap;html=1;" parent="1" vertex="1">
          <mxGeometry x="650" y="930" width="120" height="90" as="geometry" />
        </mxCell>
        <mxCell id="toGkSWeK2i7E6_Ux2etf-48" value="&lt;span style=&quot;color: rgb(0, 0, 0); font-family: Helvetica; font-size: 12px; font-style: normal; font-variant-ligatures: normal; font-variant-caps: normal; font-weight: 400; letter-spacing: normal; orphans: 2; text-align: center; text-indent: 0px; text-transform: none; widows: 2; word-spacing: 0px; -webkit-text-stroke-width: 0px; background-color: rgb(255, 234, 0); text-decoration-thickness: initial; text-decoration-style: initial; text-decoration-color: initial; float: none; display: inline !important;&quot;&gt;Increase existing user incident severity&lt;/span&gt;" style="rounded=1;whiteSpace=wrap;html=1;" parent="1" vertex="1">
          <mxGeometry x="800" y="930" width="120" height="90" as="geometry" />
        </mxCell>
        <mxCell id="toGkSWeK2i7E6_Ux2etf-49" value="&lt;span style=&quot;background-color: rgb(255, 200, 0);&quot;&gt;This case should not create any new incident - just update the existing one&lt;/span&gt;" style="text;html=1;strokeColor=none;fillColor=none;align=center;verticalAlign=middle;whiteSpace=wrap;rounded=0;" parent="1" vertex="1">
          <mxGeometry x="210" y="720" width="170" height="30" as="geometry" />
        </mxCell>
        <mxCell id="toGkSWeK2i7E6_Ux2etf-50" value="&lt;ul style=&quot;margin-bottom: 0cm; text-align: start; margin-top: 0cm; font-size: 10px;&quot; type=&quot;disc&quot;&gt;&lt;li style=&quot;margin: 0cm; font-family: Calibri, sans-serif;&quot; class=&quot;MsoListParagraph&quot;&gt;Short Term solution:&lt;/li&gt;&lt;ul style=&quot;margin-bottom: 0cm; margin-top: 0cm;&quot; type=&quot;circle&quot;&gt;&lt;li style=&quot;margin: 0cm; font-family: Calibri, sans-serif;&quot; class=&quot;MsoListParagraph&quot;&gt;&lt;span lang=&quot;EN-US&quot;&gt;As soon as an system created incident gets touched/modified manually the severity should not get at all changed by the system automatically. So the incident incl. severity is “locked” and can just be increased or decreased manually.&lt;/span&gt;&lt;/li&gt;&lt;/ul&gt;&lt;li style=&quot;margin: 0cm; font-family: Calibri, sans-serif;&quot; class=&quot;MsoListParagraph&quot;&gt;&lt;span lang=&quot;EN-US&quot;&gt;Long Term solution:&lt;/span&gt;&lt;/li&gt;&lt;ul style=&quot;margin-bottom: 0cm; margin-top: 0cm;&quot; type=&quot;circle&quot;&gt;&lt;li style=&quot;margin: 0cm; font-family: Calibri, sans-serif;&quot; class=&quot;MsoListParagraph&quot;&gt;&lt;span lang=&quot;EN-US&quot;&gt;As soon as an system created incident gets touched/modified manually the severity should get automatically set to a higher state, if the situation changes to worse.&lt;/span&gt;&lt;/li&gt;&lt;li style=&quot;margin: 0cm; font-family: Calibri, sans-serif;&quot; class=&quot;MsoListParagraph&quot;&gt;&lt;span lang=&quot;EN-US&quot;&gt;Setting the severity to a lower case can only be done manually.&lt;/span&gt;&lt;/li&gt;&lt;li style=&quot;margin: 0cm; font-family: Calibri, sans-serif;&quot; class=&quot;MsoListParagraph&quot;&gt;&lt;span lang=&quot;EN-US&quot;&gt;To give the MoD a point to decide this a status (which severity the system has decided based on the metrics) should be displayed in the edit incident dialogue. This can be taken from the MoD to adapt the status or (if this is for a specific case needed) keep the higher incident.&lt;/span&gt;&lt;/li&gt;&lt;/ul&gt;&lt;/ul&gt;" style="text;html=1;strokeColor=none;fillColor=none;align=center;verticalAlign=middle;whiteSpace=wrap;rounded=0;" parent="1" vertex="1">
          <mxGeometry x="470" y="1080" width="480" height="30" as="geometry" />
        </mxCell>
        <mxCell id="toGkSWeK2i7E6_Ux2etf-51" value="&lt;font style=&quot;font-size: 28px;&quot;&gt;Single Component Handling&lt;/font&gt;" style="text;html=1;strokeColor=none;fillColor=none;align=center;verticalAlign=middle;whiteSpace=wrap;rounded=0;" parent="1" vertex="1">
          <mxGeometry x="230" y="90" width="475" height="30" as="geometry" />
        </mxCell>
        <mxCell id="toGkSWeK2i7E6_Ux2etf-52" value="&lt;font style=&quot;font-size: 28px;&quot;&gt;Multiple Component Handling&lt;/font&gt;" style="text;html=1;strokeColor=none;fillColor=none;align=center;verticalAlign=middle;whiteSpace=wrap;rounded=0;" parent="1" vertex="1">
          <mxGeometry x="1380" y="110" width="475" height="30" as="geometry" />
        </mxCell>
        <mxCell id="toGkSWeK2i7E6_Ux2etf-53" value="" style="endArrow=none;html=1;rounded=0;strokeWidth=7;" parent="1" edge="1">
          <mxGeometry width="50" height="50" relative="1" as="geometry">
            <mxPoint x="1020" y="1160" as="sourcePoint" />
            <mxPoint x="1030" y="20" as="targetPoint" />
          </mxGeometry>
        </mxCell>
        <mxCell id="toGkSWeK2i7E6_Ux2etf-54" value="&lt;font style=&quot;font-size: 20px;&quot;&gt;By default all &quot;bad&quot; services get collected by severity in the &quot;pool-incident&quot; with the manual possibility to exclude 1 or multiple services into an user-created incident&lt;/font&gt;" style="text;html=1;strokeColor=none;fillColor=none;align=center;verticalAlign=middle;whiteSpace=wrap;rounded=0;" parent="1" vertex="1">
          <mxGeometry x="1282.5" y="170" width="670" height="220" as="geometry" />
        </mxCell>
        <mxCell id="AOC4Pka1vFd79-6JaPsT-2" value="&lt;font style=&quot;font-size: 60px;&quot;&gt;Original&lt;/font&gt;" style="text;html=1;align=center;verticalAlign=middle;resizable=0;points=[];autosize=1;strokeColor=none;fillColor=none;" parent="1" vertex="1">
          <mxGeometry x="865" y="-100" width="230" height="90" as="geometry" />
        </mxCell>
        <mxCell id="AOC4Pka1vFd79-6JaPsT-4" value="Resolution:&lt;div&gt;1. This schema describes only behaviour for incident creation, and mostly relates to incident impact.&lt;/div&gt;&lt;div&gt;&lt;br&gt;&lt;/div&gt;&lt;div&gt;The first part is clear, but only relates to incident creation.&lt;/div&gt;&lt;div&gt;&lt;br&gt;&lt;/div&gt;" style="text;html=1;align=left;verticalAlign=middle;resizable=0;points=[];autosize=1;strokeColor=none;fillColor=none;" parent="1" vertex="1">
          <mxGeometry x="-820" y="215" width="550" height="90" as="geometry" />
        </mxCell>
        <mxCell id="AOC4Pka1vFd79-6JaPsT-5" value="Resolution:&lt;div&gt;1. This schema describes only behaviour for incident creation, and mostly relates to incident impact.&lt;/div&gt;&lt;div&gt;&lt;br&gt;&lt;/div&gt;&lt;div&gt;The first part is clear, but only relates to incident creation.&lt;/div&gt;&lt;div&gt;&lt;br&gt;&lt;/div&gt;" style="text;html=1;align=left;verticalAlign=middle;resizable=0;points=[];autosize=1;strokeColor=none;fillColor=none;" parent="1" vertex="1">
          <mxGeometry x="-840" y="720" width="550" height="90" as="geometry" />
        </mxCell>
        <mxCell id="YE3IDIWjHSFLGlkIU7ly-1" value="&lt;div style=&quot;text-align: left;&quot;&gt;&lt;span style=&quot;font-size: 16px; background-color: initial;&quot;&gt;Current situation:&lt;/span&gt;&lt;/div&gt;&lt;div style=&quot;text-align: left;&quot;&gt;&lt;span style=&quot;font-size: 16px;&quot;&gt;&lt;br&gt;&lt;/span&gt;&lt;/div&gt;&lt;div style=&quot;text-align: left;&quot;&gt;&lt;span style=&quot;font-size: 16px;&quot;&gt;1. We have only one schema described above. In this schema we have 2 ways for processing incident creation. For metric processor via sending POST to V1/component_status and for user creation via web form.&lt;/span&gt;&lt;/div&gt;&lt;div style=&quot;text-align: left;&quot;&gt;&lt;span style=&quot;font-size: 16px;&quot;&gt;&lt;br&gt;&lt;/span&gt;&lt;/div&gt;&lt;div style=&quot;text-align: left;&quot;&gt;&lt;span style=&quot;font-size: 16px;&quot;&gt;This schema mostly focused on incident impact. And doesn&#39;t cover the whole component flow, then incident is creating.&lt;/span&gt;&lt;/div&gt;&lt;div style=&quot;text-align: left;&quot;&gt;&lt;span style=&quot;font-size: 16px;&quot;&gt;&lt;br&gt;&lt;/span&gt;&lt;/div&gt;&lt;div style=&quot;text-align: left;&quot;&gt;&lt;span style=&quot;font-size: 16px;&quot;&gt;Example:&lt;/span&gt;&lt;/div&gt;&lt;div style=&quot;text-align: left;&quot;&gt;&lt;span style=&quot;font-size: 16px;&quot;&gt;In our DB we have an incident with impact 1 and component A. I would like to create an incident with impact 1 and component B via API. What in the end I should get?&lt;/span&gt;&lt;/div&gt;&lt;div style=&quot;text-align: left;&quot;&gt;&lt;span style=&quot;font-size: 16px;&quot;&gt;&lt;br&gt;&lt;/span&gt;&lt;/div&gt;&lt;div style=&quot;text-align: left;&quot;&gt;&lt;span style=&quot;font-size: 16px;&quot;&gt;2. Current implementation for API and web forms works with different component count.&lt;/span&gt;&lt;/div&gt;&lt;div style=&quot;text-align: left;&quot;&gt;&lt;span style=&quot;font-size: 16px;&quot;&gt;&lt;br&gt;&lt;/span&gt;&lt;/div&gt;&lt;div style=&quot;text-align: left;&quot;&gt;&lt;span style=&quot;font-size: 16px;&quot;&gt;Example:&lt;/span&gt;&lt;/div&gt;&lt;div style=&quot;text-align: left;&quot;&gt;&lt;span style=&quot;font-size: 16px;&quot;&gt;For API you can process only 1 component for 1 incident. But for web form you can process more than 1 component for 1 incident creation. They are using different abstractions for incident creation (API - component, forms - incident).&lt;/span&gt;&lt;/div&gt;&lt;div style=&quot;text-align: left;&quot;&gt;&lt;span style=&quot;font-size: 16px;&quot;&gt;&lt;br&gt;&lt;/span&gt;&lt;/div&gt;&lt;div style=&quot;text-align: left;&quot;&gt;&lt;span style=&quot;font-size: 16px;&quot;&gt;&lt;br&gt;&lt;/span&gt;&lt;/div&gt;&lt;div style=&quot;text-align: left;&quot;&gt;&lt;span style=&quot;font-size: 16px;&quot;&gt;3. We have broken logic for web form creation. It fully ignores current schema.&amp;nbsp;&lt;/span&gt;&lt;/div&gt;&lt;div style=&quot;text-align: left;&quot;&gt;&lt;span style=&quot;font-size: 16px;&quot;&gt;&lt;br&gt;&lt;/span&gt;&lt;/div&gt;&lt;div style=&quot;text-align: left;&quot;&gt;&lt;span style=&quot;font-size: 16px;&quot;&gt;Example:&amp;nbsp;&lt;/span&gt;&lt;/div&gt;&lt;div style=&quot;text-align: left;&quot;&gt;&lt;span style=&quot;font-size: 16px;&quot;&gt;&lt;div&gt;Create an incident with impact 2 and component A, after - create an incident with impact 1 and component A too. Expectation: should get an any error. Result: the incident with impact 2 is closed and component is moved to the incident with impact 1.&lt;/div&gt;&lt;/span&gt;&lt;/div&gt;" style="text;html=1;align=center;verticalAlign=middle;resizable=0;points=[];autosize=1;strokeColor=none;fillColor=none;" vertex="1" parent="1">
          <mxGeometry x="-1185" y="1355" width="1780" height="380" as="geometry" />
        </mxCell>
        <mxCell id="YE3IDIWjHSFLGlkIU7ly-2" value="&lt;div style=&quot;text-align: left;&quot;&gt;&lt;span style=&quot;font-size: 16px;&quot;&gt;Our problem:&lt;/span&gt;&lt;/div&gt;&lt;div style=&quot;text-align: left;&quot;&gt;&lt;span style=&quot;font-size: 16px;&quot;&gt;We should decide, what business logic we will use for SD3?&lt;/span&gt;&lt;/div&gt;" style="text;html=1;align=center;verticalAlign=middle;resizable=0;points=[];autosize=1;strokeColor=none;fillColor=none;" vertex="1" parent="1">
          <mxGeometry x="-1185" y="1290" width="450" height="50" as="geometry" />
        </mxCell>
        <mxCell id="YE3IDIWjHSFLGlkIU7ly-3" value="&lt;div style=&quot;text-align: left;&quot;&gt;&lt;span style=&quot;font-size: 16px;&quot;&gt;Possible solutions&lt;/span&gt;&lt;/div&gt;&lt;div style=&quot;text-align: left; font-size: 20px;&quot;&gt;&lt;font style=&quot;font-size: 20px;&quot;&gt;1. Clarify current schema from SD2 codebase. &lt;br&gt;Create and cover all possible cases for impact and component flow for API and web forms separetely. &lt;br&gt;And implement it in SD3 as V1 and V2.&amp;nbsp;&lt;/font&gt;&lt;/div&gt;&lt;div style=&quot;text-align: left; font-size: 20px;&quot;&gt;&lt;font style=&quot;font-size: 20px;&quot;&gt;But we will do a double job and waste our time, because of in the end we should create a new common schema for dealing only via API.&amp;nbsp;&lt;/font&gt;&lt;/div&gt;&lt;div style=&quot;text-align: left; font-size: 20px;&quot;&gt;&lt;span style=&quot;&quot;&gt;&lt;br&gt;&lt;/span&gt;&lt;/div&gt;&lt;div style=&quot;text-align: left;&quot;&gt;&lt;span style=&quot;font-size: 16px;&quot;&gt;Proc:&amp;nbsp;&lt;/span&gt;&lt;/div&gt;&lt;div style=&quot;text-align: left;&quot;&gt;&lt;span style=&quot;font-size: 16px;&quot;&gt;1. We will have a full schema with all possible case.&lt;/span&gt;&lt;/div&gt;&lt;div style=&quot;text-align: left;&quot;&gt;&lt;span style=&quot;font-size: 16px;&quot;&gt;2. Partially it&#39;s done for API part, but not for web forms.&lt;/span&gt;&lt;/div&gt;&lt;div style=&quot;text-align: left;&quot;&gt;&lt;span style=&quot;font-size: 16px;&quot;&gt;&lt;br&gt;&lt;/span&gt;&lt;/div&gt;&lt;div style=&quot;text-align: left;&quot;&gt;&lt;span style=&quot;font-size: 16px;&quot;&gt;Cons:&lt;/span&gt;&lt;/div&gt;&lt;div style=&quot;text-align: left;&quot;&gt;&lt;span style=&quot;font-size: 16px;&quot;&gt;1.&amp;nbsp;&lt;/span&gt;&lt;span style=&quot;font-size: 16px; background-color: initial;&quot;&gt;We should create this schema from scratch.&lt;/span&gt;&lt;/div&gt;&lt;div style=&quot;text-align: left;&quot;&gt;&lt;span style=&quot;font-size: 16px;&quot;&gt;2. It takes time, less than for a new (because for API it&#39;s clear).&lt;/span&gt;&lt;/div&gt;&lt;div style=&quot;text-align: left;&quot;&gt;&lt;span style=&quot;font-size: 16px;&quot;&gt;3. We should approve it with customers.&lt;/span&gt;&lt;/div&gt;&lt;div style=&quot;text-align: left;&quot;&gt;&lt;span style=&quot;font-size: 16px;&quot;&gt;4. Partially this job will be outdated right after release.&lt;/span&gt;&lt;/div&gt;&lt;div style=&quot;text-align: left;&quot;&gt;&lt;br&gt;&lt;/div&gt;&lt;div style=&quot;text-align: left;&quot;&gt;&lt;br&gt;&lt;/div&gt;&lt;div style=&quot;text-align: left;&quot;&gt;&lt;div&gt;&lt;font style=&quot;font-size: 20px;&quot;&gt;2. Create absolutely new schema with new abstractions, flows, etc. But our release will be under the question.&lt;/font&gt;&lt;/div&gt;&lt;div&gt;&lt;span style=&quot;font-size: 16px;&quot;&gt;&lt;br&gt;&lt;/span&gt;&lt;/div&gt;&lt;div&gt;&lt;span style=&quot;font-size: 16px;&quot;&gt;Proc:&amp;nbsp;&lt;/span&gt;&lt;/div&gt;&lt;div&gt;&lt;span style=&quot;font-size: 16px;&quot;&gt;1. We will have totally new schema with Events, Incidents, special maintenance events.&lt;/span&gt;&lt;/div&gt;&lt;div&gt;&lt;span style=&quot;font-size: 16px;&quot;&gt;&lt;br&gt;&lt;/span&gt;&lt;/div&gt;&lt;div&gt;&lt;span style=&quot;font-size: 16px;&quot;&gt;Cons:&lt;/span&gt;&lt;/div&gt;&lt;div&gt;&lt;span style=&quot;font-size: 16px;&quot;&gt;1. We should create this schema from scratch.&lt;/span&gt;&lt;/div&gt;&lt;div&gt;&lt;span style=&quot;font-size: 16px;&quot;&gt;2. It takes time, too much. Weeks.&lt;/span&gt;&lt;/div&gt;&lt;div&gt;&lt;span style=&quot;font-size: 16px;&quot;&gt;3. We should approve it with customers.&lt;/span&gt;&lt;/div&gt;&lt;div&gt;&lt;span style=&quot;font-size: 16px;&quot;&gt;4. The schema&#39;s implementation can be very hard.&lt;/span&gt;&lt;/div&gt;&lt;div&gt;&lt;span style=&quot;font-size: 16px;&quot;&gt;5. It can be not compatible with current DB schema.&lt;/span&gt;&lt;/div&gt;&lt;div&gt;&lt;span style=&quot;font-size: 16px;&quot;&gt;&lt;br&gt;&lt;/span&gt;&lt;/div&gt;&lt;div&gt;&lt;div&gt;&lt;font style=&quot;font-size: 20px;&quot;&gt;3. Don&#39;t clarify current schema and move it as is. With all mismatches, bugs and so on. And after release return to step 2.&lt;/font&gt;&lt;/div&gt;&lt;div&gt;&lt;span style=&quot;font-size: 16px;&quot;&gt;&lt;br&gt;&lt;/span&gt;&lt;/div&gt;&lt;div&gt;&lt;span style=&quot;font-size: 16px;&quot;&gt;Proc:&amp;nbsp;&lt;/span&gt;&lt;/div&gt;&lt;div&gt;&lt;span style=&quot;font-size: 16px;&quot;&gt;1. Time, or release will be present as we expected.&lt;/span&gt;&lt;/div&gt;&lt;div&gt;&lt;span style=&quot;font-size: 16px;&quot;&gt;2. We unblock RSS implementation and other customer requests.&lt;/span&gt;&lt;/div&gt;&lt;div&gt;&lt;span style=&quot;font-size: 16px;&quot;&gt;3. We shouldn&#39;t align it with customers, because it&#39;s already in production. And we changed nothing.&amp;nbsp;&lt;/span&gt;&lt;/div&gt;&lt;div&gt;&lt;span style=&quot;font-size: 16px;&quot;&gt;3. If our customers will find any bugs and so on, we can argue, that we moved logic as is from SD2. And this is a historical behaviour. And it&#39;s a good indicate for clarifying and creating totally new schema.&lt;/span&gt;&lt;/div&gt;&lt;div&gt;&lt;span style=&quot;font-size: 16px;&quot;&gt;&lt;br&gt;&lt;/span&gt;&lt;/div&gt;&lt;div&gt;&lt;span style=&quot;font-size: 16px;&quot;&gt;Cons:&lt;/span&gt;&lt;/div&gt;&lt;div&gt;&lt;span style=&quot;font-size: 16px;&quot;&gt;1. No schemas.&lt;/span&gt;&lt;/div&gt;&lt;div&gt;&lt;span style=&quot;font-size: 16px;&quot;&gt;2. Bugs, unexpected behaviour. But we can check it on the pre-prod stage.&lt;/span&gt;&lt;/div&gt;&lt;div&gt;&lt;span style=&quot;font-size: 16px;&quot;&gt;&lt;br&gt;&lt;/span&gt;&lt;/div&gt;&lt;/div&gt;&lt;/div&gt;" style="text;html=1;align=center;verticalAlign=middle;resizable=0;points=[];autosize=1;strokeColor=none;fillColor=none;" vertex="1" parent="1">
          <mxGeometry x="-1070" y="1880" width="1460" height="820" as="geometry" />
        </mxCell>
      </root>
    </mxGraphModel>
  </diagram>
</mxfile>
